<svg enable-background="new 0 0 64 64" version="1.1" viewBox="0 0 64 64" xml:space="preserve" xmlns="http://www.w3.org/2000/svg">
<style type="text/css">
	.st0{fill:#5EB349;}
	.st1{fill:#4E4D4E;}
</style>
<path class="st0" d="m7 44.4c0.1-0.8 0.2-1.7 0.3-2.4 0.1-0.4 0-0.6-0.4-0.9-2.7-1.6-4.5-4-5.3-7-1.3-5 0.9-10.2 5.4-12.8 0.3-0.2 0.4-0.3 0.3-0.7-0.7-3.6 0-6.8 2.2-9.6 2.4-3 5.5-4.4 9.4-4.3 0.7 0 1.4 0.1 2.1 0.3 0.3 0.1 0.5 0 0.6-0.3 0.9-1.6 2.2-2.9 3.7-3.9 2.1-1.4 4.4-2 6.9-1.8 2.8 0.2 5.3 1.2 7.3 3.2 0.8 0.8 1.5 1.6 2 2.6 0.2 0.3 0.3 0.3 0.6 0.3 3.7-0.8 7 0 9.9 2.4 2.4 2.1 3.7 4.7 4 7.9 0.1 1.1 0 2.2-0.2 3.3-0.1 0.3 0 0.5 0.3 0.7 2.3 1.4 4.1 3.3 5 5.8 1.1 3 1.1 6-0.3 9-1 2.2-2.6 3.9-4.7 5.2-0.3 0.2-0.4 0.4-0.3 0.7 0.7 3.5 0.1 6.6-2.1 9.5-1.6 2.1-3.8 3.5-6.4 4.1-1.7 0.4-3.3 0.4-5 0-0.4-0.1-0.6 0-0.8 0.3-1.9 3.2-4.7 5.1-8.4 5.6-3.4 0.5-6.4-0.4-9-2.6-1-0.9-1.9-1.9-2.6-3.1-0.2-0.3-0.3-0.3-0.6-0.3-0.8 0.1-1.7 0.3-2.5 0.3-1.5 0-3-0.2-4.5-0.9-3.5-1.5-5.8-4.1-6.7-7.9 0-1-0.1-1.9-0.2-2.7zm21.7-8.5-6.4-6.4c-0.7-0.7-0.7-0.7-1.4 0l-3.3 3.3c-0.4 0.4-0.4 0.4 0 0.8l10.6 10.6c0.4 0.4 0.4 0.4 0.7 0 6.1-6 12.2-12.1 18.3-18.2 0.4-0.4 0.4-0.4 0-0.7l-3.6-3.6c-0.4-0.4-0.4-0.4-0.9 0l-13.7 13.7c-0.1 0.1-0.2 0.3-0.3 0.5z"/>
<path class="st1" d="m28.7 35.9c0.1-0.2 0.2-0.4 0.4-0.5l13.7-13.7c0.4-0.4 0.4-0.4 0.9 0l3.6 3.6c0.4 0.4 0.4 0.4 0 0.7-6.2 6.1-12.3 12.2-18.3 18.3-0.4 0.4-0.4 0.4-0.7 0l-10.6-10.6c-0.4-0.4-0.4-0.4 0-0.8l3.3-3.3c0.7-0.7 0.7-0.7 1.4 0l6 6c-0.1 0 0.1 0.1 0.3 0.3z"/>
</svg>
