<svg enable-background="new 0 0 64 64" version="1.1" viewBox="0 0 64 64" xml:space="preserve" xmlns="http://www.w3.org/2000/svg">
<style type="text/css">
	.st0{fill:#4E4D4E;}
	.st1{fill:#5FB349;}
	.st2{fill:#FFFFFF;}
	.st3{fill:#5EB349;}
	.st4{fill:#298A41;}
	.st5{fill:#298941;}
</style>
<path class="st0" d="m17.4 23.2s-0.1 0 0 0z"/>

	<path class="st1" d="m11.2 36.9c0-0.1 0-0.1 0.1-0.1-0.1 0-0.1 0-0.1 0.1z"/>
	<path class="st2" d="m37.3 18.9c0-0.1 0.1-0.1 0 0 0.1-0.1 0.1-0.1 0 0z"/>
	
		
			<path class="st3" d="m33.6 35.9c-0.1-0.8-0.4-1.5-0.6-2.2-0.5-1.6-0.7-3.2-0.6-4.8 0.3-4.1 1.7-7.7 4.6-10.7 2.2-2.4 4.9-3.9 8-4.9 2.2-0.7 4.5-1.1 6.8-1.4 2.7-0.4 5.4-0.7 8.1-1.1 0.5-0.1 0.6 0 0.6 0.5-0.1 1.9-0.4 3.8-0.8 5.6-0.8 3.2-1.8 6.3-3.5 9.2-1.6 2.5-4.4 4.9-6 5.8-0.2 0.1-6.3-7.8-6.3-7.9 0.8-0.8 1.7-1.6 2.5-2.3s1.6-1.4 2.4-2l2.1-1.5c0.9-0.6 1.9-1.2 2.8-1.8 0.1 0 0.1-0.1 0.1-0.2-0.1 0-0.2 0-0.3 0.1-1.1 0.4-2.1 0.9-3.1 1.4-1.8 0.9-3.4 2.1-5 3.3-0.8 0.7-1.7 1.4-2.5 2l-0.2 0.2c-0.6-0.4-1.6 1.4-1.6 1.4-0.3 0.3-0.7 0.6-1 0.9-1.3 1.2-2.3 2.6-3.3 4.1-0.7 1.1-1.4 2.3-2 3.4-0.3 0.6-0.7 1.3-1 1.9 0.1 0.4 0 0.7-0.2 1z"/>
			<path class="st1" d="m46 20c0.9 1.5 6.6 9.9 6.7 10.1s-9.1 6.3-12.9 6.6c-0.7 0.1-1.4 0.1-2.1 0.1-1.5 0.2-2.6 1.1-3.4 2.3-0.1 0.2-0.3 0.4-0.4 0.7v-0.3c0.5-1.5 1.1-3 1.8-4.5 0.8-1.7 1.6-3.3 2.4-4.9 0.6-1.1 1.3-2.2 2-3.3 0.9-1.3 0.9-4.7 1.9-5.8 0.2-0.3 3.8-0.6 4-1z"/>
			<path class="st4" d="m43 23.2c0-0.1 0.1-0.1 0.2-0.2 0.8-0.7 1.6-1.4 2.5-2 1.6-1.2 3.2-2.4 5-3.3 1-0.5 2-1 3.1-1.4 0.1 0 0.2-0.1 0.3-0.1 0 0.1-0.1 0.1-0.1 0.2-1 0.6-2 1.2-2.9 1.8l-2.1 1.5c-0.8 0.6-1.6 1.3-2.4 2-0.9 0.8-1.7 1.5-2.5 2.4-0.4-0.3-0.7-0.6-1.1-0.9z"/>
		
		<path class="st3" d="m44.2 24.1"/>
		<path class="st5" d="m44.8 23.4c-0.1 0.3-3 2.9-3.2 3.2-0.8 0.9-1.6 1.8-2.2 2.8-0.6 0.8-1.1 1.7-1.6 2.6-0.7 1.2-1.4 2.5-2 3.8-0.5 1.1-1 2.3-1.5 3.5v0.2c-0.1 0-0.1 0.1-0.1 0.1-0.2 0.6-0.4 1.1-0.6 1.7-0.1 0.1-0.1 0.3-0.2 0.4-0.1 0.4-0.4 4.6-0.9 4.7-0.3 0.1-0.9 0-1.2 0-0.3-0.1 0-4.1 0-4.4 0.3-1.4 0.9-2.7 1.4-4 0.3-0.7 0.6-1.3 0.9-1.9 0-0.1 0-0.1 0.1-0.2 0.2-0.3 0.3-0.5 0.4-0.8 0.3-0.6 0.6-1.3 1-1.9 0.6-1.2 1.3-2.3 2-3.4 1-1.5 2-2.9 3.3-4.1 0.3-0.3 2.4-2.3 2.7-2.6 0.4 0.4 1.5-0.1 1.7 0.3z"/>
	
	
		
			<path class="st3" d="m29.4 35.2-1.2-1.8c-0.7-1.1-1.5-2.2-2.3-3.2-1.1-1.4-2.3-2.7-3.7-3.8-0.4-0.3-0.7-0.6-1.1-0.8 0 0-1.2-1.7-1.7-1.3 0-0.1-0.1-0.1-0.2-0.2l-2.7-1.8c-1.7-1.1-3.4-2.1-5.2-2.8-1-0.4-2.1-0.8-3.2-1.1-0.1 0-0.2-0.1-0.3 0 0 0.1 0.1 0.1 0.2 0.2 1 0.5 2 1 2.9 1.5 0.8 0.4 1.5 0.8 2.2 1.3 0.9 0.6 1.8 1.1 2.6 1.8 0.9 0.7 1.9 1.4 2.7 2.1 0 0-5.3 8.5-5.5 8.4-1.7-0.7-4.7-2.9-6.5-5.2-1.9-2.7-3.3-5.7-4.3-8.8-0.6-1.8-1-3.6-1.4-5.5-0.1-0.5 0-0.6 0.5-0.6 2.7 0.1 5.4 0.2 8.1 0.4 2.3 0.1 4.7 0.3 6.9 0.8 3.1 0.7 6 2 8.4 4.1 3.1 2.7 4.9 6.2 5.5 10.2 0.3 1.6 0.2 3.2-0.1 4.8-0.2 0.7-0.4 1.5-0.4 2.2 0.1-0.3 0-0.6-0.2-0.9z"/>
			<path class="st1" d="m20.2 22c1.1 1 1.4 4.4 2.4 5.6 0.8 1 1.5 2.1 2.3 3.1 1 1.5 2 3.1 2.9 4.7 0.8 1.4 1.5 2.9 2.2 4.3 0 0.1 0.1 0.2 0.1 0.3-0.2-0.2-0.3-0.4-0.5-0.6-0.9-1.2-2.1-2-3.6-2h-2.1c-3.8 0-13.6-5.2-13.4-5.4 0.1-0.2 4.9-9.1 5.7-10.7 0.1 0.4 3.7 0.4 4 0.7z"/>
			<path class="st4" d="m18.4 25.2-2.7-2.1c-0.9-0.6-1.7-1.2-2.6-1.8-0.7-0.5-1.5-0.9-2.2-1.3-1-0.5-2-1-2.9-1.5-0.1 0-0.1-0.1-0.2-0.2h0.3c1.1 0.3 2.1 0.7 3.2 1.1 1.8 0.8 3.6 1.8 5.2 2.8l2.7 1.8c0.1 0 0.2 0.1 0.2 0.2l-1 1z"/>
		
		<path class="st3" d="m18.3 25.3"/>
		<path class="st5" d="m19.1 24.2c0.4 0.3 2.6 2 3 2.3 1.4 1.1 2.6 2.4 3.6 3.8 0.8 1 1.6 2.1 2.3 3.2l1.2 1.8c0.2 0.3 0.3 0.6 0.5 0.8 0 0.1 0.1 0.1 0.1 0.2 0.4 0.6 0.7 1.2 1.1 1.8 0.7 1.2 1.3 2.5 1.8 3.8 0.1 0.3 0 0.4-0.2 0.6-0.3 0.1-0.6 0.1-1 0.1 2.1 5.6 0.4 2-0.9-0.8-0.1-0.1-0.1-0.3-0.2-0.4-0.3-0.5-0.5-1.1-0.7-1.6 0-0.1 0-0.1-0.1-0.1 0-0.1 0-0.2-0.1-0.2-0.6-1.1-1.1-2.3-1.8-3.3-0.7-1.2-1.5-2.5-2.3-3.6-0.6-0.8-1.2-1.6-1.8-2.4-0.8-0.9-1.6-1.8-2.5-2.6-0.2-0.2-3.3-2.6-3.5-2.8 0.2-0.6 1.3-0.2 1.5-0.6z"/>
	


	<rect class="st0" x="40" y="27.6" width="7.3" height="35"/>
	<rect class="st0" transform="matrix(-1.837e-16 1 -1 -1.837e-16 88.767 1.4248)" x="40" y="27.6" width="7.3" height="35"/>

</svg>
